<?xml version="1.0" encoding="utf-8"?>
<svg version="1.1" xmlns:xlink="http://www.w3.org/1999/xlink" width="59px" height="66px" xmlns="http://www.w3.org/2000/svg">
  <g transform="matrix(1 0 0 1 -175 -52 )">
    <path d="M 49.1666666666667 18.8571428571429  C 49.1666666666667 22.4665178571429  48.1551649305556 25.8058035714286  46.1321614583333 28.875  C 47.3357204861111 29.21875  48.4816623263889 29.6852678571429  49.5699869791667 30.2745535714286  C 50.6583116319445 30.8638392857143  51.7978515625 31.7600446428571  52.9886067708333 32.9631696428571  C 54.1793619791667 34.1662946428571  55.197265625 35.5842633928571  56.0423177083333 37.2170758928571  C 56.8873697916667 38.8498883928571  57.5915798611111 40.9614955357143  58.1549479166667 43.5518973214286  C 58.7183159722222 46.1422991071429  59 49.0457589285714  59 52.2622767857143  C 59 56.0435267857143  57.7196180555556 59.2784598214286  55.1588541666667 61.9670758928571  C 52.5980902777778 64.6556919642857  49.5123697916667 66  45.9016927083333 66  L 13.0983072916667 66  C 9.48763020833333 66  6.40190972222222 64.6556919642857  3.84114583333333 61.9670758928571  C 1.28038194444444 59.2784598214286  0 56.0435267857143  0 52.2622767857143  C 0 49.0457589285714  0.281684027777778 46.1422991071429  0.845052083333333 43.5518973214286  C 1.40842013888889 40.9614955357143  2.11263020833333 38.8498883928571  2.95768229166667 37.2170758928571  C 3.802734375 35.5842633928571  4.82063802083333 34.1662946428571  6.01139322916667 32.9631696428571  C 7.2021484375 31.7600446428571  8.34168836805556 30.8638392857143  9.43001302083333 30.2745535714286  C 10.5183376736111 29.6852678571429  11.6642795138889 29.21875  12.8678385416667 28.875  C 10.8448350694444 25.8058035714286  9.83333333333333 22.4665178571429  9.83333333333333 18.8571428571429  C 9.83333333333333 16.3035714285714  10.3518880208333 13.8666294642857  11.3889973958333 11.5463169642857  C 12.4261067708333 9.22600446428571  13.828125 7.21875  15.5950520833333 5.52455357142857  C 17.3619791666667 3.83035714285714  19.4554036458333 2.48604910714286  21.8753255208333 1.49162946428571  C 24.2952473958333 0.497209821428568  26.8368055555556 0  29.5 0  C 32.1631944444445 0  34.7047526041667 0.497209821428568  37.1246744791667 1.49162946428571  C 39.5445963541667 2.48604910714286  41.6380208333333 3.83035714285714  43.4049479166667 5.52455357142857  C 45.171875 7.21875  46.5738932291667 9.22600446428571  47.6110026041667 11.5463169642857  C 48.6481119791667 13.8666294642857  49.1666666666667 16.3035714285714  49.1666666666667 18.8571428571429  Z M 39.9287109375 8.85770089285714  C 37.0478515625 6.09542410714286  33.5716145833333 4.71428571428571  29.5 4.71428571428571  C 25.4283854166667 4.71428571428571  21.9521484375 6.09542410714286  19.0712890625 8.85770089285714  C 16.1904296875 11.6199776785714  14.75 14.953125  14.75 18.8571428571429  C 14.75 22.7611607142857  16.1904296875 26.0943080357143  19.0712890625 28.8565848214286  C 21.9521484375 31.6188616071429  25.4283854166667 33  29.5 33  C 33.5716145833333 33  37.0478515625 31.6188616071429  39.9287109375 28.8565848214286  C 42.8095703125 26.0943080357143  44.25 22.7611607142857  44.25 18.8571428571429  C 44.25 14.953125  42.8095703125 11.6199776785714  39.9287109375 8.85770089285714  Z M 13.0983072916667 61  L 45.9016927083333 61  C 48.1551649305556 61.2857142857143  50.0821397569445 60.4079241071429  51.6826171875 58.65234375  C 53.2830946180556 56.8967633928571  54.0833333333333 54.7667410714286  54.0833333333333 52.2622767857143  C 54.0833333333333 46.3939732142857  53.0782335069445 41.765625  51.0680338541667 38.3772321428571  C 49.0578342013889 34.9888392857143  46.1705729166667 33.2087053571429  42.40625 33.0368303571429  C 38.6931423611111 36.1551339285714  34.3910590277778 37.7142857142857  29.5 37.7142857142857  C 24.6089409722222 37.7142857142857  20.3068576388889 36.1551339285714  16.59375 33.0368303571429  C 12.8294270833333 33.2087053571429  9.94216579861111 34.9888392857143  7.93196614583333 38.3772321428571  C 5.92176649305556 41.765625  4.91666666666667 46.3939732142857  4.91666666666667 52.2622767857143  C 4.91666666666667 54.7667410714286  5.71690538194444 56.8967633928571  7.3173828125 58.65234375  C 8.91786024305556 60.4079241071429  10.8448350694444 61.2857142857143  13.0983072916667 61  Z " fill-rule="nonzero" fill="#aaaaaa" stroke="none" transform="matrix(1 0 0 1 175 52 )" />
  </g>
</svg>