<?xml version="1.0" encoding="utf-8"?>
<svg version="1.1" xmlns:xlink="http://www.w3.org/1999/xlink" width="59px" height="66px" xmlns="http://www.w3.org/2000/svg">
  <g transform="matrix(1 0 0 1 -532 -52 )">
    <path d="M 25.2286458333333 39.7649063032368  C 26.7651041666667 37.8909710391823  27.5333333333333 35.6297558205565  27.5333333333333 32.9812606473595  C 27.5333333333333 30.3327654741624  26.7651041666667 28.0715502555366  25.2286458333333 26.1976149914821  C 23.6921875 24.3236797274276  21.8381944444444 23.3867120954003  19.6666666666667 23.3867120954003  C 17.4951388888889 23.3867120954003  15.6411458333333 24.3236797274276  14.1046875 26.1976149914821  C 12.5682291666667 28.0715502555366  11.8 30.3327654741624  11.8 32.9812606473595  C 11.8 35.6297558205565  12.5682291666667 37.8909710391823  14.1046875 39.7649063032368  C 15.6411458333333 41.6388415672913  17.4951388888889 42.5758091993186  19.6666666666667 42.5758091993186  C 21.8381944444444 42.5758091993186  23.6921875 41.6388415672913  25.2286458333333 39.7649063032368  Z M 49.9809895833333 55.5621805792164  C 50.74921875 54.6252129471891  51.1333333333333 53.4946053378762  51.1333333333333 52.1703577512777  C 51.1333333333333 50.8710959681999  50.7440972222222 49.7467348097672  49.965625 48.7972742759796  C 49.1871527777778 47.8478137421919  48.2652777777778 47.3730834752981  47.2 47.3730834752981  C 46.1347222222222 47.3730834752981  45.2128472222222 47.8478137421919  44.434375 48.7972742759796  C 43.6559027777778 49.7467348097672  43.2666666666667 50.8710959681999  43.2666666666667 52.1703577512777  C 43.2666666666667 53.4946053378762  43.65078125 54.6252129471891  44.4190104166667 55.5621805792164  C 45.1872395833333 56.4991482112436  46.1142361111111 56.9676320272572  47.2 56.9676320272572  C 48.2857638888889 56.9676320272572  49.2127604166667 56.4991482112436  49.9809895833333 55.5621805792164  Z M 49.9809895833333 17.1839863713799  C 50.74921875 16.2470187393526  51.1333333333333 15.1164111300397  51.1333333333333 13.7921635434412  C 51.1333333333333 12.4929017603634  50.7440972222222 11.3685406019307  49.965625 10.4190800681431  C 49.1871527777778 9.46961953435548  48.2652777777778 8.99488926746167  47.2 8.99488926746167  C 46.1347222222222 8.99488926746167  45.2128472222222 9.46961953435548  44.434375 10.4190800681431  C 43.6559027777778 11.3685406019307  43.2666666666667 12.4929017603634  43.2666666666667 13.7921635434412  C 43.2666666666667 15.1164111300397  43.65078125 16.2470187393526  44.4190104166667 17.1839863713799  C 45.1872395833333 18.1209540034072  46.1142361111111 18.5894378194208  47.2 18.5894378194208  C 48.2857638888889 18.5894378194208  49.2127604166667 18.1209540034072  49.9809895833333 17.1839863713799  Z M 39.1182291666667 28.839863713799  C 39.2616319444444 29.0522430437252  39.3333333333333 29.2958546280522  39.3333333333333 29.5706984667802  L 39.3333333333333 36.5042589437819  C 39.3333333333333 36.7541169789892  39.2616319444444 36.9977285633163  39.1182291666667 37.2350936967632  C 38.9748263888889 37.4724588302101  38.8109375 37.6036342986939  38.6265625 37.6286201022147  L 33.8635416666667 38.5281090289608  C 33.6381944444445 39.4026121521863  33.3104166666667 40.3520726859739  32.8802083333333 41.3764906303237  C 33.5767361111111 42.5758091993186  34.4986111111111 44.0124929017604  35.6458333333333 45.6865417376491  C 35.7892361111111 45.9613855763771  35.8609375 46.2112436115843  35.8609375 46.4361158432709  C 35.8609375 46.7359454855196  35.7892361111111 46.9733106189665  35.6458333333333 47.1482112436116  C 35.1746527777778 47.8977853492334  34.3296006944445 49.0159000567859  33.1106770833333 50.5025553662692  C 31.8917534722222 51.9892106757524  31.0876736111111 52.732538330494  30.6984375 52.732538330494  C 30.4730902777778 52.732538330494  30.2579861111111 52.6450880181715  30.053125 52.4701873935264  L 26.5192708333333 49.0971039182283  C 25.7612847222222 49.5718341851221  24.9725694444444 49.9591141396934  24.153125 50.2589437819421  C 23.9277777777778 52.9574105621806  23.6921875 54.8938103350369  23.4463541666667 56.0681431005111  C 23.3029513888889 56.6678023850085  22.9956597222222 56.9676320272572  22.5244791666667 56.9676320272572  L 16.8088541666667 56.9676320272572  C 16.5835069444444 56.9676320272572  16.3786458333333 56.8739352640545  16.1942708333333 56.6865417376491  C 16.0098958333333 56.4991482112436  15.9074652777778 56.2805224304373  15.8869791666667 56.03066439523  L 15.1802083333333 50.2964224872232  C 14.4836805555556 50.0465644520159  13.7154513888889 49.6592844974446  12.8755208333333 49.1345826235094  L 9.24947916666667 52.4701873935264  C 9.10607638888889 52.6450880181715  8.90121527777778 52.732538330494  8.63489583333333 52.732538330494  C 8.40954861111111 52.732538330494  8.19444444444444 52.6325951164111  7.98958333333333 52.4327086882453  C 5.03958333333333 49.1095968199886  3.56458333333333 47.1107325383305  3.56458333333333 46.4361158432709  C 3.56458333333333 46.2112436115843  3.63628472222222 45.9738784781374  3.7796875 45.7240204429302  C 3.98454861111111 45.37421919364  4.40451388888889 44.7120954003407  5.03958333333333 43.7376490630324  C 5.67465277777778 42.763202725724  6.15607638888889 42.0011357183418  6.48385416666667 41.4514480408859  C 6.01267361111111 40.3520726859739  5.65416666666667 39.3276547416241  5.40833333333333 38.3781942078365  L 0.7375 37.4787052810903  C 0.532638888888889 37.4537194775696  0.358506944444444 37.3350369108461  0.215104166666667 37.1226575809199  C 0.0717013888888889 36.9102782509937  0 36.6666666666667  0 36.3918228279387  L 0 29.458262350937  C 0 29.2084043157297  0.0717013888888889 28.9647927314026  0.215104166666667 28.7274275979557  C 0.358506944444444 28.4900624645088  0.522395833333333 28.358886996025  0.706770833333333 28.3339011925043  L 5.46979166666667 27.4344122657581  C 5.69513888888889 26.5599091425326  6.02291666666667 25.610448608745  6.453125 24.5860306643952  C 5.75659722222222 23.3867120954003  4.83472222222222 21.9500283929585  3.6875 20.2759795570698  C 3.54409722222222 20.0011357183418  3.47239583333333 19.7512776831346  3.47239583333333 19.526405451448  C 3.47239583333333 19.2265758091993  3.54409722222222 18.976717773992  3.6875 18.7768313458262  C 4.13819444444445 18.0272572402044  4.978125 16.9153889835321  6.20729166666667 15.4412265758092  C 7.43645833333333 13.9670641680863  8.24565972222222 13.2299829642249  8.63489583333333 13.2299829642249  C 8.86024305555556 13.2299829642249  9.07534722222222 13.3174332765474  9.28020833333333 13.4923339011925  L 12.8140625 16.8654173764906  C 13.5105902777778 16.4156729131175  14.2993055555556 16.0159000567859  15.1802083333333 15.6660988074957  C 15.4055555555556 12.9676320272572  15.6411458333333 11.0437251561613  15.8869791666667 9.89437819420784  C 16.0303819444444 9.29471890971039  16.3376736111111 8.99488926746167  16.8088541666667 8.99488926746167  L 22.5244791666667 8.99488926746167  C 22.7498263888889 8.99488926746167  22.9546875 9.0885860306644  23.1390625 9.27597955706985  C 23.3234375 9.46337308347529  23.4258680555556 9.68199886428165  23.4463541666667 9.93185689948893  L 24.153125 15.6660988074957  C 24.8496527777778 15.915956842703  25.6178819444444 16.3032367972743  26.4578125 16.8279386712095  L 30.0838541666667 13.4923339011925  C 30.2477430555556 13.3174332765474  30.4526041666667 13.2299829642249  30.6984375 13.2299829642249  C 30.9237847222222 13.2299829642249  31.1388888888889 13.3299261783078  31.34375 13.5298126064736  C 34.29375 16.8529244747303  35.76875 18.8517887563884  35.76875 19.526405451448  C 35.76875 19.7262918796139  35.6970486111111 19.9636570130608  35.5536458333333 20.2385008517888  C 35.3078125 20.6382737081204  34.8776041666667 21.31289040318  34.2630208333333 22.2623509369676  C 33.6484375 23.2118114707553  33.1875 23.9613855763771  32.8802083333333 24.511073253833  C 33.3513888888889 25.7103918228279  33.6996527777778 26.7348097671777  33.925 27.5843270868825  L 38.5958333333333 28.4463373083475  C 38.8006944444444 28.496308915389  38.9748263888889 28.6274843838728  39.1182291666667 28.839863713799  Z M 54.4213541666667 48.3850085178876  C 57.4737847222222 48.7597955706985  59 49.1470755252697  59 49.5468483816014  L 59 54.793867120954  C 59 55.1936399772856  57.4737847222222 55.5809199318569  54.4213541666667 55.9557069846678  C 54.1755208333333 56.6303236797274  53.8682291666667 57.2799545712663  53.4994791666667 57.9045996592845  C 54.5442708333333 60.7279954571266  55.0666666666667 62.4520159000568  55.0666666666667 63.076660988075  C 55.0666666666667 63.1766042021579  55.0256944444444 63.2640545144804  54.94375 63.3390119250426  C 52.4444444444445 65.1130039750142  51.1743055555556 66  51.1333333333333 66  C 50.9694444444445 66  50.4982638888889 65.4128336172629  49.7197916666667 64.2385008517888  C 48.9413194444444 63.0641680863146  48.4086805555556 62.2146507666099  48.121875 61.6899488926746  C 47.7121527777778 61.7399204997161  47.4048611111111 61.7649063032368  47.2 61.7649063032368  C 46.9951388888889 61.7649063032368  46.6878472222222 61.7399204997161  46.278125 61.6899488926746  C 45.9913194444445 62.2146507666099  45.4586805555556 63.0641680863146  44.6802083333333 64.2385008517888  C 43.9017361111111 65.4128336172629  43.4305555555556 66  43.2666666666667 66  C 43.2256944444445 66  41.9555555555556 65.1130039750142  39.45625 63.3390119250426  C 39.3743055555556 63.2640545144804  39.3333333333333 63.1766042021579  39.3333333333333 63.076660988075  C 39.3333333333333 62.4520159000568  39.8557291666667 60.7279954571266  40.9005208333333 57.9045996592845  C 40.5317708333333 57.2799545712663  40.2244791666667 56.6303236797274  39.9786458333333 55.9557069846678  C 36.9262152777778 55.5809199318569  35.4 55.1936399772856  35.4 54.793867120954  L 35.4 49.5468483816014  C 35.4 49.1470755252697  36.9262152777778 48.7597955706985  39.9786458333333 48.3850085178876  C 40.2449652777778 47.6604202157865  40.5522569444445 47.0107893242476  40.9005208333333 46.4361158432709  C 39.8557291666667 43.6127200454287  39.3333333333333 41.8886996024986  39.3333333333333 41.2640545144804  C 39.3333333333333 41.1641113003975  39.3743055555556 41.076660988075  39.45625 41.0017035775128  C 39.5381944444445 40.9517319704713  39.8967013888889 40.7018739352641  40.5317708333333 40.252129471891  C 41.1668402777778 39.8023850085179  41.7711805555556 39.3776263486655  42.3447916666667 38.9778534923339  C 42.9184027777778 38.5780806360023  43.2256944444445 38.3781942078365  43.2666666666667 38.3781942078365  C 43.4305555555556 38.3781942078365  43.9017361111111 38.9591141396934  44.6802083333333 40.1209540034072  C 45.4586805555556 41.282793867121  45.9913194444445 42.1260647359455  46.278125 42.6507666098808  C 46.6878472222222 42.6007950028393  46.9951388888889 42.5758091993186  47.2 42.5758091993186  C 47.4048611111111 42.5758091993186  47.7121527777778 42.6007950028393  48.121875 42.6507666098808  C 49.1666666666667 40.8767745599091  50.1090277777778 39.4775695627484  50.9489583333333 38.4531516183986  L 51.1333333333333 38.3781942078365  C 51.2152777777778 38.3781942078365  52.4854166666667 39.2526973310619  54.94375 41.0017035775128  C 55.0256944444444 41.076660988075  55.0666666666667 41.1641113003975  55.0666666666667 41.2640545144804  C 55.0666666666667 41.8886996024986  54.5442708333333 43.6127200454287  53.4994791666667 46.4361158432709  C 53.8477430555556 47.0107893242476  54.1550347222222 47.6604202157865  54.4213541666667 48.3850085178876  Z M 54.4213541666667 10.0068143100511  C 57.4737847222222 10.381601362862  59 10.7688813174333  59 11.1686541737649  L 59 16.4156729131175  C 59 16.8154457694492  57.4737847222222 17.2027257240204  54.4213541666667 17.5775127768313  C 54.1755208333333 18.252129471891  53.8682291666667 18.9017603634299  53.4994791666667 19.526405451448  C 54.5442708333333 22.3498012492902  55.0666666666667 24.0738216922203  55.0666666666667 24.6984667802385  C 55.0666666666667 24.7984099943214  55.0256944444444 24.8858603066439  54.94375 24.9608177172061  C 52.4444444444445 26.7348097671777  51.1743055555556 27.6218057921635  51.1333333333333 27.6218057921635  C 50.9694444444445 27.6218057921635  50.4982638888889 27.0346394094265  49.7197916666667 25.8603066439523  C 48.9413194444444 24.6859738784781  48.4086805555556 23.8364565587734  48.121875 23.3117546848382  C 47.7121527777778 23.3617262918796  47.4048611111111 23.3867120954003  47.2 23.3867120954003  C 46.9951388888889 23.3867120954003  46.6878472222222 23.3617262918796  46.278125 23.3117546848382  C 45.9913194444445 23.8364565587734  45.4586805555556 24.6859738784781  44.6802083333333 25.8603066439523  C 43.9017361111111 27.0346394094265  43.4305555555556 27.6218057921635  43.2666666666667 27.6218057921635  C 43.2256944444445 27.6218057921635  41.9555555555556 26.7348097671777  39.45625 24.9608177172061  C 39.3743055555556 24.8858603066439  39.3333333333333 24.7984099943214  39.3333333333333 24.6984667802385  C 39.3333333333333 24.0738216922203  39.8557291666667 22.3498012492902  40.9005208333333 19.526405451448  C 40.5317708333333 18.9017603634299  40.2244791666667 18.252129471891  39.9786458333333 17.5775127768313  C 36.9262152777778 17.2027257240204  35.4 16.8154457694492  35.4 16.4156729131175  L 35.4 11.1686541737649  C 35.4 10.7688813174333  36.9262152777778 10.381601362862  39.9786458333333 10.0068143100511  C 40.2449652777778 9.28222600795003  40.5522569444445 8.63259511641112  40.9005208333333 8.05792163543441  C 39.8557291666667 5.23452583759227  39.3333333333333 3.51050539466212  39.3333333333333 2.88586030664395  C 39.3333333333333 2.78591709256104  39.3743055555556 2.6984667802385  39.45625 2.62350936967632  C 39.5381944444445 2.57353776263486  39.8967013888889 2.3236797274276  40.5317708333333 1.87393526405452  C 41.1668402777778 1.42419080068143  41.7711805555556 0.999432140829065  42.3447916666667 0.599659284497445  C 42.9184027777778 0.19988642816581  43.2256944444445 0  43.2666666666667 0  C 43.4305555555556 0  43.9017361111111 0.580919931856896  44.6802083333333 1.7427597955707  C 45.4586805555556 2.9045996592845  45.9913194444445 3.74787052810903  46.278125 4.2725724020443  C 46.6878472222222 4.22260079500283  46.9951388888889 4.19761499148212  47.2 4.19761499148212  C 47.4048611111111 4.19761499148212  47.7121527777778 4.22260079500283  48.121875 4.2725724020443  C 49.1666666666667 2.49858035207268  50.1090277777778 1.09937535491198  50.9489583333333 0.0749574105621806  L 51.1333333333333 0  C 51.2152777777778 0  52.4854166666667 0.874503123225436  54.94375 2.62350936967632  C 55.0256944444444 2.6984667802385  55.0666666666667 2.78591709256104  55.0666666666667 2.88586030664395  C 55.0666666666667 3.51050539466212  54.5442708333333 5.23452583759227  53.4994791666667 8.05792163543441  C 53.8477430555556 8.63259511641112  54.1550347222222 9.28222600795003  54.4213541666667 10.0068143100511  Z " fill-rule="nonzero" fill="#aaaaaa" stroke="none" transform="matrix(1 0 0 1 532 52 )" />
  </g>
</svg>