<?xml version="1.0" encoding="utf-8"?>
<svg version="1.1" xmlns:xlink="http://www.w3.org/1999/xlink" width="59px" height="66px" xmlns="http://www.w3.org/2000/svg">
  <g transform="matrix(1 0 0 1 -888 -52 )">
    <path d="M 21.0714285714286 6  L 21.0714285714286 11  L 37.9285714285714 11  L 37.9285714285714 6  L 21.0714285714286 6  Z M 36.875 38  L 59 38  L 59 59.125  C 59 61.015625  58.4841889880952 62.6341145833333  57.4525669642857 63.98046875  C 56.4209449404762 65.3268229166667  55.1808035714286 66  53.7321428571429 66  L 5.26785714285714 66  C 3.81919642857143 66  2.57905505952381 65.3268229166667  1.54743303571429 63.98046875  C 0.515811011904762 62.6341145833333  0 61.015625  0 59.125  L 0 38  L 22.125 38  L 22.125 45.375  C 22.125 46.1197916666667  22.3335193452381 46.7643229166667  22.7505580357143 47.30859375  C 23.1675967261905 47.8528645833333  23.6614583333333 48.125  24.2321428571429 48  L 34.7678571428571 48  C 35.3385416666667 48.125  35.8324032738095 47.8528645833333  36.2494419642857 47.30859375  C 36.6664806547619 46.7643229166667  36.875 46.1197916666667  36.875 45.375  L 36.875 38  Z M 25.2857142857143 38.5  L 33.7142857142857 38.5  L 33.7142857142857 44  L 25.2857142857143 44  L 25.2857142857143 38.5  Z M 57.4525669642857 13.01953125  C 58.4841889880952 14.3658854166667  59 15.984375  59 17.875  L 59 34  L 0 34  L 0 17.875  C 0 15.984375  0.515811011904762 14.3658854166667  1.54743303571429 13.01953125  C 2.57905505952381 11.6731770833333  3.81919642857143 11  5.26785714285714 11  L 16.8571428571429 11  L 16.8571428571429 4.125  C 16.8571428571429 2.97916666666666  17.1644345238095 2.00520833333332  17.7790178571429 1.203125  C 18.3936011904762 0.401041666666671  19.139880952381 0  20.0178571428571 0  L 38.9821428571429 0  C 39.8601190476191 0  40.6063988095238 0.401041666666671  41.2209821428571 1.203125  C 41.8355654761905 2.00520833333332  42.1428571428571 2.97916666666666  42.1428571428571 4.125  L 42.1428571428571 11  L 53.7321428571429 11  C 55.1808035714286 11  56.4209449404762 11.6731770833333  57.4525669642857 13.01953125  Z " fill-rule="nonzero" fill="#aaaaaa" stroke="none" transform="matrix(1 0 0 1 888 52 )" />
  </g>
</svg>