<?xml version="1.0" encoding="utf-8"?>
<svg version="1.1" xmlns:xlink="http://www.w3.org/1999/xlink" width="59px" height="66px" xmlns="http://www.w3.org/2000/svg">
  <g transform="matrix(1 0 0 1 -1598 -52 )">
    <path d="M 58.1176853055917 27.2067620286086  L 52.8237971391417 33  L 58.1176853055917 38.7932379713914  C 58.8849154746424 39.594278283485  59.140658864326 40.5955786736021  58.8849154746424 41.7971391417425  C 58.5780234070221 42.9700910273082  57.9130905938448 43.6996098829649  56.8901170351105 43.9856957087126  L 49.6781534460338 46.0455136540962  L 51.7113133940182 54.0273081924577  C 52.0182054616385 55.2002600780234  51.7752492414391 56.2015604681404  50.98244473342 57.0312093628088  C 50.2407889033377 57.9180754226268  49.3456870394452 58.1898569570871  48.2971391417425 57.8465539661899  L 41.1618985695709 55.5721716514954  L 39.3205461638492 63.6397919375813  C 39.0648027741656 64.7841352405722  38.4126571304725 65.5279583875163  37.3641092327698 65.8712613784135  C 37.0572171651495 65.9284785435631  36.8142609449502 65.9570871261378  36.6352405721717 65.9570871261378  C 35.8424360641526 65.9570871261378  35.1902904204595 65.6423927178154  34.6788036410923 65.0130039011704  L 29.5 59.0910273081925  L 24.3211963589077 65.0130039011704  C 23.6051148677937 65.8712613784135  22.7100130039012 66.1573472041612  21.6358907672302 65.8712613784135  C 20.5873428695275 65.556566970091  19.9351972258344 64.8127438231469  19.6794538361508 63.6397919375813  L 17.8381014304291 55.5721716514954  L 10.7028608582575 57.8465539661899  C 9.65431296055483 58.1898569570871  8.75921109666233 57.9180754226268  8.01755526657997 57.0312093628088  C 7.2247507585609 56.2015604681404  6.98179453836151 55.2002600780234  7.28868660598179 54.0273081924577  L 9.32184655396619 46.0455136540962  L 2.10988296488947 43.9856957087126  C 1.08690940615518 43.6996098829649  0.421976592977893 42.9700910273082  0.115084525357607 41.7971391417425  C -0.140658864325964 40.5955786736021  0.115084525357607 39.594278283485  0.882314694408322 38.7932379713914  L 6.17620286085826 33  L 0.882314694408322 27.2067620286086  C 0.115084525357607 26.405721716515  -0.140658864325964 25.4044213263979  0.115084525357607 24.2028608582575  C 0.421976592977893 23.0299089726918  1.08690940615518 22.3003901170351  2.10988296488947 22.0143042912874  L 9.32184655396619 19.9544863459038  L 7.28868660598179 11.9726918075423  C 6.98179453836151 10.7997399219766  7.2247507585609 9.79843953185955  8.01755526657997 8.96879063719116  C 8.75921109666233 8.08192457737321  9.65431296055483 7.81014304291287  10.7028608582575 8.15344603381014  L 17.8381014304291 10.4278283485046  L 19.6794538361508 2.36020806241873  C 19.9351972258344 1.18725617685305  20.5873428695275 0.457737321196354  21.6358907672302 0.171651495448632  C 22.6844386649328 -0.171651495448632  23.5795405288253 0.100130039011703  24.3211963589077 0.98699609882965  L 29.5 6.9518855656697  L 34.6788036410923 0.98699609882965  C 35.4204594711747 0.128738621586477  36.3155613350672 -0.143042912873872  37.3641092327698 0.171651495448632  C 38.4126571304725 0.457737321196354  39.0648027741656 1.18725617685305  39.3205461638492 2.36020806241873  L 41.1618985695709 10.4278283485046  L 48.2971391417425 8.15344603381014  C 49.3456870394452 7.81014304291287  50.2407889033377 8.08192457737321  50.98244473342 8.96879063719116  C 51.7752492414391 9.79843953185955  52.0182054616385 10.7997399219766  51.7113133940182 11.9726918075423  L 49.6781534460338 19.9544863459038  L 56.8901170351105 22.0143042912874  C 57.9130905938448 22.3003901170351  58.5780234070221 23.0299089726918  58.8849154746424 24.2028608582575  C 59.140658864326 25.4044213263979  58.8849154746424 26.405721716515  58.1176853055917 27.2067620286086  Z " fill-rule="nonzero" fill="#aaaaaa" stroke="none" transform="matrix(1 0 0 1 1598 52 )" />
  </g>
</svg>