<?xml version="1.0" encoding="utf-8"?>
<svg version="1.1" xmlns:xlink="http://www.w3.org/1999/xlink" width="59px" height="66px" xmlns="http://www.w3.org/2000/svg">
  <g transform="matrix(1 0 0 1 -177 -225 )">
    <path d="M 49.9230769230769 9.42857142857143  L 54.4615384615385 9.42857142857143  C 55.6907051282051 9.42857142857143  56.7544070512821 9.89508928571428  57.6526442307692 10.828125  C 58.5508814102564 11.7611607142857  59 12.8660714285714  59 14.1428571428571  L 59 61.2857142857143  C 59 62.5625  58.5508814102564 63.6674107142857  57.6526442307692 64.6004464285714  C 56.7544070512821 65.5334821428571  55.6907051282051 66  54.4615384615385 66  L 4.53846153846154 66  C 3.30929487179487 66  2.24559294871795 65.5334821428571  1.34735576923077 64.6004464285714  C 0.44911858974359 63.6674107142857  0 62.5625  0 61.2857142857143  L 0 14.1428571428571  C 0 12.8660714285714  0.44911858974359 11.7611607142857  1.34735576923077 10.828125  C 2.24559294871795 9.89508928571428  3.30929487179487 9.42857142857143  4.53846153846154 9.42857142857143  L 9.07692307692308 9.42857142857143  L 9.07692307692308 5.89285714285714  C 9.07692307692308 4.27232142857143  9.63241185897436 2.88504464285714  10.7433894230769 1.73102678571429  C 11.8543669871795 0.577008928571429  13.1899038461538 0  14.75 0  L 17.0192307692308 0  C 18.5793269230769 0  19.9148637820513 0.577008928571429  21.0258413461538 1.73102678571429  C 22.1368189102564 2.88504464285714  22.6923076923077 4.27232142857143  22.6923076923077 5.89285714285714  L 22.6923076923077 10  L 36.3076923076923 10  L 36.3076923076923 5.89285714285714  C 36.3076923076923 4.27232142857143  36.8631810897436 2.88504464285714  37.9741586538462 1.73102678571429  C 39.0851362179487 0.577008928571429  40.4206730769231 0  41.9807692307692 0  L 44.25 0  C 45.8100961538462 0  47.1456330128205 0.577008928571429  48.2566105769231 1.73102678571429  C 49.3675881410256 2.88504464285714  49.9230769230769 4.27232142857143  49.9230769230769 5.89285714285714  L 49.9230769230769 9.42857142857143  Z M 41.1652644230769 5.04575892857143  C 40.9525240384615 5.26674107142857  40.8461538461538 5.54910714285713  40 5.89285714285714  L 40 16.5  C 40.8461538461538 16.84375  40.9525240384615 17.1261160714286  41.1652644230769 17.3470982142857  C 41.3780048076923 17.5680803571429  41.6498397435897 17.6785714285714  41.9807692307692 17.6785714285714  L 44.25 17.6785714285714  C 44.5809294871795 17.6785714285714  44.8527644230769 17.5680803571429  45.0655048076923 17.3470982142857  C 45.2782451923077 17.1261160714286  45.3846153846154 16.84375  45 16.5  L 45 5.89285714285714  C 45.3846153846154 5.54910714285713  45.2782451923077 5.26674107142857  45.0655048076923 5.04575892857143  C 44.8527644230769 4.82477678571429  44.5809294871795 4.71428571428571  44.25 4.71428571428571  L 41.9807692307692 4.71428571428571  C 41.6498397435897 4.71428571428571  41.3780048076923 4.82477678571429  41.1652644230769 5.04575892857143  Z M 13.9344951923077 5.04575892857143  C 13.7217548076923 5.26674107142857  13.6153846153846 5.54910714285713  14 5.89285714285714  L 14 16.5  C 13.6153846153846 16.84375  13.7217548076923 17.1261160714286  13.9344951923077 17.3470982142857  C 14.1472355769231 17.5680803571429  14.4190705128205 17.6785714285714  14.75 17.6785714285714  L 17.0192307692308 17.6785714285714  C 17.3501602564103 17.6785714285714  17.6219951923077 17.5680803571429  17.8347355769231 17.3470982142857  C 18.0474759615385 17.1261160714286  18.1538461538462 16.84375  19 16.5  L 19 5.89285714285714  C 18.1538461538462 5.54910714285713  18.0474759615385 5.26674107142857  17.8347355769231 5.04575892857143  C 17.6219951923077 4.82477678571429  17.3501602564103 4.71428571428571  17.0192307692308 4.71428571428571  L 14.75 4.71428571428571  C 14.4190705128205 4.71428571428571  14.1472355769231 4.82477678571429  13.9344951923077 5.04575892857143  Z M 5 61  L 54 61  L 54 24  L 5 24  L 5 61  Z M 31.7692307692308 31.8214285714286  L 31.7692307692308 40.0714285714286  L 39.7115384615385 40.0714285714286  C 40.042467948718 40.0714285714286  40.3143028846154 40.1819196428571  40.5270432692308 40.4029017857143  C 40.7397836538462 40.6238839285714  40.8461538461538 40.90625  40.8461538461538 41.25  L 40.8461538461538 43.6071428571429  C 40.8461538461538 43.9508928571429  40.7397836538462 44.2332589285714  40.5270432692308 44.4542410714286  C 40.3143028846154 44.6752232142857  40.042467948718 44.7857142857143  39.7115384615385 44.7857142857143  L 31.7692307692308 44.7857142857143  L 31.7692307692308 53.0357142857143  C 31.7692307692308 53.3794642857143  31.6628605769231 53.6618303571429  31.4501201923077 53.8828125  C 31.2373798076923 54.1037946428571  30.9655448717949 54.2142857142857  30.6346153846154 54.2142857142857  L 28.3653846153846 54.2142857142857  C 28.0344551282051 54.2142857142857  27.7626201923077 54.1037946428571  27.5498798076923 53.8828125  C 27.3371394230769 53.6618303571429  27.2307692307692 53.3794642857143  27.2307692307692 53.0357142857143  L 27.2307692307692 44.7857142857143  L 19.2884615384615 44.7857142857143  C 18.9575320512821 44.7857142857143  18.6856971153846 44.6752232142857  18.4729567307692 44.4542410714286  C 18.2602163461538 44.2332589285714  18.1538461538462 43.9508928571429  18.1538461538462 43.6071428571429  L 18.1538461538462 41.25  C 18.1538461538462 40.90625  18.2602163461538 40.6238839285714  18.4729567307692 40.4029017857143  C 18.6856971153846 40.1819196428571  18.9575320512821 40.0714285714286  19.2884615384615 40.0714285714286  L 27.2307692307692 40.0714285714286  L 27.2307692307692 31.8214285714286  C 27.2307692307692 31.4776785714286  27.3371394230769 31.1953125  27.5498798076923 30.9743303571429  C 27.7626201923077 30.7533482142857  28.0344551282051 30.6428571428571  28.3653846153846 30.6428571428571  L 30.6346153846154 30.6428571428571  C 30.9655448717949 30.6428571428571  31.2373798076923 30.7533482142857  31.4501201923077 30.9743303571429  C 31.6628605769231 31.1953125  31.7692307692308 31.4776785714286  31.7692307692308 31.8214285714286  Z " fill-rule="nonzero" fill="#aaaaaa" stroke="none" transform="matrix(1 0 0 1 177 225 )" />
  </g>
</svg>