<?xml version="1.0" encoding="utf-8"?>
<svg version="1.1" xmlns:xlink="http://www.w3.org/1999/xlink" width="59px" height="66px" xmlns="http://www.w3.org/2000/svg">
  <g transform="matrix(1 0 0 1 -1244 -52 )">
    <path d="M 41.6572265625 46.599609375  C 43.7186414930556 44.2936197916667  45.1590711805556 41.59375  45.978515625 38.5  L 41.7916666666667 38.5  C 41.1258680555556 38.5  40.5496961805556 38.2278645833333  40.0631510416667 37.68359375  C 39.5766059027778 37.1393229166667  39.3333333333333 36.4947916666667  39.3333333333333 35.75  L 39.3333333333333 30.25  C 39.3333333333333 29.5052083333333  39.5766059027778 28.8606770833333  40.0631510416667 28.31640625  C 40.5496961805556 27.7721354166667  41.1258680555556 27.5  41.7916666666667 27.5  L 45.978515625 27.5  C 45.1590711805556 24.40625  43.7186414930556 21.7063802083333  41.6572265625 19.400390625  C 39.5958116319445 17.0944010416667  37.1822916666667 15.4830729166667  34.4166666666667 14.56640625  L 34.4166666666667 19.25  C 34.4166666666667 19.9947916666667  34.1733940972222 20.6393229166667  33.6868489583333 21.18359375  C 33.2003038194445 21.7278645833333  32.6241319444445 22  31.9583333333333 22  L 27.0416666666667 22  C 26.3758680555556 22  25.7996961805556 21.7278645833333  25.3131510416667 21.18359375  C 24.8266059027778 20.6393229166667  24.5833333333333 19.9947916666667  24.5833333333333 19.25  L 24.5833333333333 14.56640625  C 21.8177083333333 15.4830729166667  19.4041883680556 17.0944010416667  17.3427734375 19.400390625  C 15.2813585069444 21.7063802083333  13.8409288194444 24.40625  13.021484375 27.5  L 17.2083333333333 27.5  C 17.8741319444444 27.5  18.4503038194444 27.7721354166667  18.9368489583333 28.31640625  C 19.4233940972222 28.8606770833333  19.6666666666667 29.5052083333333  19.6666666666667 30.25  L 19.6666666666667 35.75  C 19.6666666666667 36.4947916666667  19.4233940972222 37.1393229166667  18.9368489583333 37.68359375  C 18.4503038194444 38.2278645833333  17.8741319444444 38.5  17.2083333333333 38.5  L 13.021484375 38.5  C 13.8409288194444 41.59375  15.2813585069444 44.2936197916667  17.3427734375 46.599609375  C 19.4041883680556 48.9055989583333  21.8177083333333 50.5169270833333  24.5833333333333 51.43359375  L 24.5833333333333 46.75  C 24.5833333333333 46.0052083333333  24.8266059027778 45.3606770833333  25.3131510416667 44.81640625  C 25.7996961805556 44.2721354166667  26.3758680555556 44  27.0416666666667 44  L 31.9583333333333 44  C 32.6241319444445 44  33.2003038194445 44.2721354166667  33.6868489583333 44.81640625  C 34.1733940972222 45.3606770833333  34.4166666666667 46.0052083333333  34.4166666666667 46.75  L 34.4166666666667 51.43359375  C 37.1822916666667 50.5169270833333  39.5958116319445 48.9055989583333  41.6572265625 46.599609375  Z M 58.2701822916667 28.31640625  C 58.7567274305556 28.8606770833333  59 29.5052083333333  59 30.25  L 59 35.75  C 59 36.4947916666667  58.7567274305556 37.1393229166667  58.2701822916667 37.68359375  C 57.7836371527778 38.2278645833333  57.2074652777778 38.5  56.5416666666667 38.5  L 51.048828125 38.5  C 50.1013454861111 43.1119791666667  48.1231553819445 47.1009114583333  45.1142578125 50.466796875  C 42.1053602430556 53.8326822916667  38.5394965277778 56.0455729166667  34.4166666666667 57.10546875  L 34.4166666666667 63.25  C 34.4166666666667 63.9947916666667  34.1733940972222 64.6393229166667  33.6868489583333 65.18359375  C 33.2003038194445 65.7278645833333  32.6241319444445 66  31.9583333333333 66  L 27.0416666666667 66  C 26.3758680555556 66  25.7996961805556 65.7278645833333  25.3131510416667 65.18359375  C 24.8266059027778 64.6393229166667  24.5833333333333 63.9947916666667  24.5833333333333 63.25  L 24.5833333333333 57.10546875  C 20.4605034722222 56.0455729166667  16.8946397569444 53.8326822916667  13.8857421875 50.466796875  C 10.8768446180556 47.1009114583333  8.89865451388889 43.1119791666667  7.951171875 38.5  L 2.45833333333333 38.5  C 1.79253472222222 38.5  1.21636284722222 38.2278645833333  0.729817708333333 37.68359375  C 0.243272569444444 37.1393229166667  0 36.4947916666667  0 35.75  L 0 30.25  C 0 29.5052083333333  0.243272569444444 28.8606770833333  0.729817708333333 28.31640625  C 1.21636284722222 27.7721354166667  1.79253472222222 27.5  2.45833333333333 27.5  L 7.951171875 27.5  C 8.89865451388889 22.8880208333333  10.8768446180556 18.8990885416667  13.8857421875 15.533203125  C 16.8946397569444 12.1673177083333  20.4605034722222 9.95442708333333  24.5833333333333 8.89453125  L 24.5833333333333 2.75  C 24.5833333333333 2.00520833333332  24.8266059027778 1.36067708333332  25.3131510416667 0.816406249999998  C 25.7996961805556 0.272135416666663  26.3758680555556 0  27.0416666666667 0  L 31.9583333333333 0  C 32.6241319444445 0  33.2003038194445 0.272135416666663  33.6868489583333 0.816406249999998  C 34.1733940972222 1.36067708333332  34.4166666666667 2.00520833333332  34.4166666666667 2.75  L 34.4166666666667 8.89453125  C 38.5394965277778 9.95442708333333  42.1053602430556 12.1673177083333  45.1142578125 15.533203125  C 48.1231553819445 18.8990885416667  50.1013454861111 22.8880208333333  51.048828125 27.5  L 56.5416666666667 27.5  C 57.2074652777778 27.5  57.7836371527778 27.7721354166667  58.2701822916667 28.31640625  Z " fill-rule="nonzero" fill="#aaaaaa" stroke="none" transform="matrix(1 0 0 1 1244 52 )" />
  </g>
</svg>