<?xml version="1.0" encoding="utf-8"?>
<svg version="1.1" xmlns:xlink="http://www.w3.org/1999/xlink" width="59px" height="66px" xmlns="http://www.w3.org/2000/svg">
  <g transform="matrix(1 0 0 1 -890 -225 )">
    <path d="M 56.6569010416667 20.1953125  C 58.2189670138889 24.2630208333333  59 28.53125  59 33  C 59 37.46875  58.2189670138889 41.7369791666667  56.6569010416667 45.8046875  C 55.0948350694445 49.8723958333333  52.9950086805556 53.3815104166667  50.357421875 56.33203125  C 47.7198350694445 59.2825520833333  44.5828993055556 61.6315104166667  40.9466145833333 63.37890625  C 37.3103298611111 65.1263020833333  33.4947916666667 66  29.5 66  C 25.0954861111111 66  20.9086371527778 64.9615885416667  16.939453125 62.884765625  C 12.9702690972222 60.8079427083333  9.59006076388889 57.87890625  6.798828125 54.09765625  C 6.61957465277778 53.8111979166667  6.53634982638889 53.4889322916667  6.54915364583333 53.130859375  C 6.56195746527778 52.7727864583333  6.67078993055556 52.4791666666667  6.87565104166667 52.25  L 12.1380208333333 46.3203125  C 12.3940972222222 46.0625  12.7141927083333 45.93359375  13.0983072916667 45.93359375  C 13.5080295138889 45.9908854166667  13.8025173611111 46.1627604166667  13.9817708333333 46.44921875  C 15.8511284722222 49.1705729166667  18.1430121527778 51.2760416666667  20.857421875 52.765625  C 23.5718315972222 54.2552083333333  26.4526909722222 55  29.5 55  C 32.1631944444445 55  34.7047526041667 54.419921875  37.1246744791667 53.259765625  C 39.5445963541667 52.099609375  41.6380208333333 50.53125  43.4049479166667 48.5546875  C 45.171875 46.578125  46.5738932291667 44.236328125  47.6110026041667 41.529296875  C 48.6481119791667 38.822265625  49.1666666666667 35.9791666666667  49.1666666666667 33  C 49.1666666666667 30.0208333333333  48.6481119791667 27.177734375  47.6110026041667 24.470703125  C 46.5738932291667 21.763671875  45.171875 19.421875  43.4049479166667 17.4453125  C 41.6380208333333 15.46875  39.5445963541667 13.900390625  37.1246744791667 12.740234375  C 34.7047526041667 11.580078125  32.1631944444445 11  29.5 11  C 26.9904513888889 11  24.5833333333333 11.5084635416667  22.2786458333333 12.525390625  C 19.9739583333333 13.5423177083333  17.9253472222222 14.99609375  16.1328125 16.88671875  L 21.3951822916667 22.81640625  C 22.1890190972222 23.67578125  22.3682725694444 24.6640625  21.9329427083333 25.78125  C 21.4976128472222 26.9270833333333  20.7421875 27.5  19.6666666666667 28  L 2.45833333333333 28  C 1.79253472222222 27.5  1.21636284722222 27.2278645833333  0.729817708333333 26.68359375  C 0.243272569444444 26.1393229166667  0 25.4947916666667  0 24.75  L 0 5.5  C 0 4.296875  0.512152777777778 3.45182291666667  1.53645833333333 2.96484375  C 2.53515625 2.47786458333333  3.41861979166667 2.67838541666667  4.18684895833333 3.56640625  L 9.18033854166667 9.109375  C 11.9203559027778 6.21614583333333  15.0508897569444 3.974609375  18.5719401041667 2.384765625  C 22.0929904513889 0.794921875000002  25.7356770833333 0  29.5 0  C 33.4947916666667 0  37.3103298611111 0.873697916666666  40.9466145833333 2.62109375  C 44.5828993055556 4.36848958333333  47.7198350694445 6.71744791666666  50.357421875 9.66796875  C 52.9950086805556 12.6184895833333  55.0948350694445 16.1276041666667  56.6569010416667 20.1953125  Z M 34.0709635416667 19.63671875  C 34.3014322916667 19.89453125  34.4166666666667 20.2239583333333  34 20.625  L 34 39.875  C 34.4166666666667 40.2760416666667  34.3014322916667 40.60546875  34.0709635416667 40.86328125  C 33.8404947916667 41.12109375  33.5460069444445 41.25  33.1875 41  L 20.8958333333333 41  C 20.5373263888889 41.25  20.2428385416667 41.12109375  20.0123697916667 40.86328125  C 19.7819010416667 40.60546875  19.6666666666667 40.2760416666667  19.6666666666667 39.875  L 19.6666666666667 37.125  C 19.6666666666667 36.7239583333333  19.7819010416667 36.39453125  20.0123697916667 36.13671875  C 20.2428385416667 35.87890625  20.5373263888889 35.75  20.8958333333333 35.75  L 29 35.75  L 29 20.625  C 29.5 20.2239583333333  29.615234375 19.89453125  29.845703125 19.63671875  C 30.076171875 19.37890625  30.3706597222222 19.25  30.7291666666667 19.25  L 33.1875 19.25  C 33.5460069444445 19.25  33.8404947916667 19.37890625  34.0709635416667 19.63671875  Z " fill-rule="nonzero" fill="#aaaaaa" stroke="none" transform="matrix(1 0 0 1 890 225 )" />
  </g>
</svg>