<?xml version="1.0" encoding="utf-8"?>
<svg version="1.1" xmlns:xlink="http://www.w3.org/1999/xlink" width="59px" height="66px" xmlns="http://www.w3.org/2000/svg">
  <g transform="matrix(1 0 0 1 -534 -225 )">
    <path d="M 34.8583984375 45.4486607142857  C 36.2027994791667 46.6763392857143  36.875 48.0267857142857  36.875 49.5  C 36.875 51.4642857142857  35.7994791666667 53.1339285714286  33.6484375 54.5089285714286  C 31.4973958333333 55.8839285714286  28.8854166666667 56.5714285714286  25.8125 56.5714285714286  C 22.7395833333333 56.5714285714286  20.1276041666667 55.8839285714286  17.9765625 54.5089285714286  C 15.8255208333333 53.1339285714286  14.75 51.4642857142857  14.75 49.5  C 14.75 48.0267857142857  15.4222005208333 46.6763392857143  16.7666015625 45.4486607142857  C 18.1110026041667 44.2209821428571  19.8971354166667 43.3493303571429  23 42.8337053571429  L 23 28.2857142857143  L 29 28.2857142857143  L 29 42.8337053571429  C 31.7278645833333 43.3493303571429  33.5139973958333 44.2209821428571  34.8583984375 45.4486607142857  Z M 38.86279296875 57.8420758928571  C 42.4542643229167 55.5463169642857  44.25 52.765625  44.25 49.5  C 44.25 47.609375  43.5970052083333 45.8415178571429  42.291015625 44.1964285714286  C 40.9850260416667 42.5513392857143  39.1796875 41.1763392857143  36 40.0714285714286  L 36 11.7857142857143  C 36.875 9.82142857142857  35.7994791666667 8.15178571428572  33.6484375 6.77678571428571  C 31.4973958333333 5.40178571428571  28.8854166666667 4.71428571428571  25.8125 4.71428571428571  C 22.7395833333333 4.71428571428571  20.1276041666667 5.40178571428571  17.9765625 6.77678571428571  C 15.8255208333333 8.15178571428572  14.75 9.82142857142857  15 11.7857142857143  L 15 40.0714285714286  C 12.4453125 41.1763392857143  10.6399739583333 42.5513392857143  9.333984375 44.1964285714286  C 8.02799479166667 45.8415178571429  7.375 47.609375  7.375 49.5  C 7.375 52.765625  9.17073567708333 55.5463169642857  12.76220703125 57.8420758928571  C 16.3536783854167 60.1378348214286  20.7037760416667 61.2857142857143  25.8125 61.2857142857143  C 30.9212239583333 61.2857142857143  35.2713216145833 60.1378348214286  38.86279296875 57.8420758928571  Z M 44 37.9720982142857  C 49.1666666666667 41.1886160714286  51.625 45.03125  51.625 49.5  C 51.625 54.0424107142857  49.0994466145833 57.9280133928571  44.04833984375 61.1568080357143  C 38.9972330729167 64.3856026785714  32.9186197916667 66  25.8125 66  C 18.7063802083333 66  12.6277669270833 64.3856026785714  7.57666015625 61.1568080357143  C 2.52555338541667 57.9280133928571  0 54.0424107142857  0 49.5  C 0 45.03125  2.45833333333333 41.1886160714286  8 37.9720982142857  L 8 11.7857142857143  C 7.375 8.52008928571428  9.17073567708333 5.73939732142857  12.76220703125 3.44363839285714  C 16.3536783854167 1.14787946428572  20.7037760416667 0  25.8125 0  C 30.9212239583333 0  35.2713216145833 1.14787946428572  38.86279296875 3.44363839285714  C 42.4542643229167 5.73939732142857  44.25 8.52008928571428  44 11.7857142857143  L 44 37.9720982142857  Z M 47.9375 29  L 59 29  L 59 33  L 47.9375 33  L 47.9375 29  Z M 47.9375 19  L 59 19  L 59 24  L 47.9375 24  L 47.9375 19  Z M 47.9375 10  L 59 10  L 59 15  L 47.9375 15  L 47.9375 10  Z " fill-rule="nonzero" fill="#aaaaaa" stroke="none" transform="matrix(1 0 0 1 534 225 )" />
  </g>
</svg>