<?xml version="1.0" encoding="utf-8"?>
<svg version="1.1" xmlns:xlink="http://www.w3.org/1999/xlink" width="59px" height="66px" xmlns="http://www.w3.org/2000/svg">
  <g transform="matrix(1 0 0 1 -1246 -225 )">
    <path d="M 54.7747395833333 49.091796875  C 54.9693576388889 48.8196614583333  55.0666666666667 48.4973958333333  55 48.125  L 55 6.875  C 55.0666666666667 6.50260416666666  54.9693576388889 6.18033854166666  54.7747395833333 5.908203125  C 54.5801215277778 5.63606770833333  54.3496527777778 5.5  54.0833333333333 6  L 4.91666666666667 6  C 4.65034722222222 5.5  4.41987847222222 5.63606770833333  4.22526041666667 5.908203125  C 4.03064236111111 6.18033854166666  3.93333333333333 6.50260416666666  4 6.875  L 4 48.125  C 3.93333333333333 48.4973958333333  4.03064236111111 48.8196614583333  4.22526041666667 49.091796875  C 4.41987847222222 49.3639322916667  4.65034722222222 49.5  4.91666666666667 49  L 54.0833333333333 49  C 54.3496527777778 49.5  54.5801215277778 49.3639322916667  54.7747395833333 49.091796875  Z M 57.5557291666667 2.01953125  C 58.5185763888889 3.36588541666666  59 4.984375  59 6.875  L 59 48.125  C 59 50.015625  58.5185763888889 51.6341145833333  57.5557291666667 52.98046875  C 56.5928819444445 54.3268229166667  55.4354166666667 55  54.0833333333333 55  L 31.4666666666667 55  L 31.4666666666667 60  L 42.2833333333333 60  C 42.5701388888889 60.5  42.8057291666667 60.62890625  42.9901041666667 60.88671875  C 43.1744791666667 61.14453125  43.2666666666667 61.4739583333333  43.2666666666667 61.875  L 43.2666666666667 64.625  C 43.2666666666667 65.0260416666667  43.1744791666667 65.35546875  42.9901041666667 65.61328125  C 42.8057291666667 65.87109375  42.5701388888889 66  42.2833333333333 66  L 16.7166666666667 66  C 16.4298611111111 66  16.1942708333333 65.87109375  16.0098958333333 65.61328125  C 15.8255208333333 65.35546875  15.7333333333333 65.0260416666667  15.7333333333333 64.625  L 15.7333333333333 61.875  C 15.7333333333333 61.4739583333333  15.8255208333333 61.14453125  16.0098958333333 60.88671875  C 16.1942708333333 60.62890625  16.4298611111111 60.5  16.7166666666667 60  L 27.5333333333333 60  L 27.5333333333333 55  L 4.91666666666667 55  C 3.56458333333333 55  2.40711805555556 54.3268229166667  1.44427083333333 52.98046875  C 0.481423611111111 51.6341145833333  0 50.015625  0 48.125  L 0 6.875  C 0 4.984375  0.481423611111111 3.36588541666666  1.44427083333333 2.01953125  C 2.40711805555556 0.673177083333327  3.56458333333333 0  4.91666666666667 0  L 54.0833333333333 0  C 55.4354166666667 0  56.5928819444445 0.673177083333327  57.5557291666667 2.01953125  Z " fill-rule="nonzero" fill="#aaaaaa" stroke="none" transform="matrix(1 0 0 1 1246 225 )" />
  </g>
</svg>