<?xml version="1.0" encoding="utf-8"?>
<svg version="1.1" xmlns:xlink="http://www.w3.org/1999/xlink" width="59px" height="66px" xmlns="http://www.w3.org/2000/svg">
  <g transform="matrix(1 0 0 1 -1600 -225 )">
    <path d="M 35.6340144230769 32.18359375  C 36.0831330128205 31.6393229166667  36.3076923076923 30.9947916666667  36.3076923076923 30.25  C 36.3076923076923 29.5052083333333  36.0831330128205 28.8606770833333  35.6340144230769 28.31640625  C 35.1848958333333 27.7721354166667  34.6530448717949 27.5  34.0384615384615 27.5  L 24.9615384615385 27.5  C 24.3469551282051 27.5  23.8151041666667 27.7721354166667  23.3659855769231 28.31640625  C 22.9168669871795 28.8606770833333  22.6923076923077 29.5052083333333  22.6923076923077 30.25  C 22.6923076923077 30.9947916666667  22.9168669871795 31.6393229166667  23.3659855769231 32.18359375  C 23.8151041666667 32.7278645833333  24.3469551282051 33  24.9615384615385 33  L 34.0384615384615 33  C 34.6530448717949 33  35.1848958333333 32.7278645833333  35.6340144230769 32.18359375  Z M 56.0570913461538 20.06640625  C 56.5062099358974 20.6106770833333  56.7307692307692 21.2552083333333  56 22  L 56 63.25  C 56.7307692307692 63.9947916666667  56.5062099358974 64.6393229166667  56.0570913461538 65.18359375  C 55.6079727564103 65.7278645833333  55.0761217948718 66  54.4615384615385 66  L 4.53846153846154 66  C 3.92387820512821 66  3.39202724358974 65.7278645833333  2.94290865384615 65.18359375  C 2.49379006410256 64.6393229166667  2.26923076923077 63.9947916666667  3 63.25  L 3 22  C 2.26923076923077 21.2552083333333  2.49379006410256 20.6106770833333  2.94290865384615 20.06640625  C 3.39202724358974 19.5221354166667  3.92387820512821 19.25  4.53846153846154 20  L 54.4615384615385 20  C 55.0761217948718 19.25  55.6079727564103 19.5221354166667  56.0570913461538 20.06640625  Z M 58.3263221153846 0.816406249999998  C 58.7754407051282 1.36067708333332  59 2.00520833333332  59 2.75  L 59 13.75  C 59 14.4947916666667  58.7754407051282 15.1393229166667  58.3263221153846 15.68359375  C 57.877203525641 16.2278645833333  57.3453525641026 16.5  56.7307692307692 17  L 2.26923076923077 17  C 1.65464743589744 16.5  1.12279647435898 16.2278645833333  0.673677884615385 15.68359375  C 0.224559294871795 15.1393229166667  0 14.4947916666667  0 13.75  L 0 2.75  C 0 2.00520833333332  0.224559294871795 1.36067708333332  0.673677884615385 0.816406249999998  C 1.12279647435898 0.272135416666663  1.65464743589744 0  2.26923076923077 0  L 56.7307692307692 0  C 57.3453525641026 0  57.877203525641 0.272135416666663  58.3263221153846 0.816406249999998  Z " fill-rule="nonzero" fill="#aaaaaa" stroke="none" transform="matrix(1 0 0 1 1600 225 )" />
  </g>
</svg>