<?xml version="1.0" encoding="utf-8"?>
<svg version="1.1" xmlns:xlink="http://www.w3.org/1999/xlink" width="21px" height="23px" xmlns="http://www.w3.org/2000/svg">
  <g transform="matrix(1 0 0 1 -1614 -626 )">
    <path d="M 15 4.92857142857143  L 19.875 4.92857142857143  C 20.1875 4.92857142857143  20.453125 5.04836309523809  20.671875 5.28794642857143  C 20.890625 5.52752976190476  21 5.81845238095238  21 6.16071428571429  L 21 21.7678571428571  C 21 22.110119047619  20.890625 22.4010416666667  20.671875 22.640625  C 20.453125 22.8802083333333  20.1875 23  19.875 23  L 8.625 23  C 8.3125 23  8.046875 22.8802083333333  7.828125 22.640625  C 7.609375 22.4010416666667  7.5 22.110119047619  7.5 21.7678571428571  L 7.5 18.0714285714286  L 1.125 18.0714285714286  C 0.8125 18.0714285714286  0.546875 17.9516369047619  0.328125 17.7120535714286  C 0.109375 17.4724702380952  0 17.1815476190476  0 16.8392857142857  L 0 8.21428571428571  C 0 7.87202380952381  0.078125 7.49553571428571  0.234375 7.08482142857143  C 0.390625 6.67410714285714  0.578125 6.34895833333333  0.796875 6.109375  L 5.578125 0.872767857142858  C 5.796875 0.633184523809523  6.09375 0.427827380952381  6.46875 0.256696428571429  C 6.84375 0.0855654761904772  7.1875 0  7.5 0  L 12.375 0  C 12.6875 0  12.953125 0.119791666666668  13.171875 0.359375  C 13.390625 0.598958333333332  13.5 0.889880952380952  13.5 1.23214285714286  L 13.5 5.44196428571429  C 14.03125 5.09970238095238  14.53125 4.92857142857143  15 4.92857142857143  Z M 13.5 11.5  L 13.5 7.66238839285714  L 9.99609375 11.5  L 13.5 11.5  Z M 6 6.57142857142857  L 6 2.73381696428571  L 2.49609375 6.57142857142857  L 6 6.57142857142857  Z M 7.734375 12.0133928571429  C 7.890625 11.6026785714286  8.078125 11.2775297619048  8.296875 11.0379464285714  L 12 6.98214285714286  L 12 1.64285714285714  L 7.5 1.64285714285714  L 7.5 6.98214285714286  C 7.5 7.32440476190476  7.390625 7.61532738095238  7.171875 7.85491071428571  C 6.953125 8.09449404761905  6.6875 8.21428571428571  6.375 8.21428571428571  L 1.5 8.21428571428571  L 1.5 16.4285714285714  L 7.5 16.4285714285714  L 7.5 13.1428571428571  C 7.5 12.8005952380952  7.578125 12.4241071428571  7.734375 12.0133928571429  Z M 9 21  L 19.5 21  L 19.5 6.57142857142857  L 15 6.57142857142857  L 15 11.9107142857143  C 15 12.2529761904762  14.890625 12.5438988095238  14.671875 12.7834821428571  C 14.453125 13.0230654761905  14.1875 13.1428571428571  13.875 13.1428571428571  L 9 13.1428571428571  L 9 21  Z " fill-rule="nonzero" fill="#169bd5" stroke="none" transform="matrix(1 0 0 1 1614 626 )" />
  </g>
</svg>