<?xml version="1.0" encoding="utf-8"?>
<svg version="1.1" xmlns:xlink="http://www.w3.org/1999/xlink" width="21px" height="23px" xmlns="http://www.w3.org/2000/svg">
  <g transform="matrix(1 0 0 1 -1659 -626 )">
    <path d="M 9.79372197309417 17.25  L 10.4529147982063 17.25  L 11.8183856502242 15.3551136363636  L 10.0291479820628 12.8721590909091  L 8.66367713004484 14.7670454545455  L 8.66367713004484 15.6818181818182  L 9.79372197309417 15.6818181818182  L 9.79372197309417 17.25  Z M 15.6205156950673 6.02769886363636  C 15.7539237668161 5.84256628787879  15.7578475336323 5.66287878787879  15.6322869955157 5.48863636363636  C 15.5067264573991 5.31439393939394  15.3772421524664 5.31983901515151  15.2438340807175 5.50497159090909  L 11.1238789237668 11.2223011363636  C 10.9904708520179 11.4074337121212  10.9865470852018 11.5871212121212  11.1121076233184 11.7613636363636  C 11.237668161435 11.9356060606061  11.3671524663677 11.9301609848485  11.5005605381166 11.7450284090909  L 15.6205156950673 6.02769886363636  Z M 16.3385650224215 14.7180397727273  C 16.4955156950673 14.8051609848485  16.5739910313901 14.9630681818182  16.5739910313901 15.1917613636364  L 16.5739910313901 18.2954545454545  C 16.5739910313901 19.5913825757576  16.242432735426 20.6994554924242  15.5793161434978 21.6196732954545  C 14.9161995515695 22.5398910984848  14.1177130044843 23  13.1838565022422 23  L 3.39013452914798 23  C 2.45627802690583 23  1.65779147982063 22.5398910984848  0.994674887892377 21.6196732954545  C 0.331558295964126 20.6994554924242  0 19.5913825757576  0 18.2954545454545  L 0 4.70454545454546  C 0 3.40861742424242  0.331558295964126 2.30054450757576  0.994674887892377 1.38032670454546  C 1.65779147982063 0.460108901515149  2.45627802690583 0  3.39013452914798 0  L 13.1838565022422 0  C 13.6782511210762 0  14.137331838565 0.136126893939393  14.5610986547085 0.408380681818181  C 14.6788116591928 0.484611742424241  14.7494394618834 0.609848484848484  14.7729820627803 0.784090909090908  C 14.7965246636771 0.969223484848484  14.7612107623318 1.12713068181818  14.6670403587444 1.2578125  L 14.0902466367713 2.05823863636364  C 13.9803811659193 2.21070075757576  13.8548206278027 2.25426136363636  13.7135650224215 2.18892045454546  C 13.5330717488789 2.12357954545454  13.3565022421525 2.09090909090909  13.1838565022422 2.09090909090909  L 3.39013452914798 2.09090909090909  C 2.87219730941704 2.09090909090909  2.42881165919283 2.34682765151515  2.05997757847534 2.85866477272727  C 1.69114349775785 3.37050189393939  1.5067264573991 3.98579545454546  1.5067264573991 4.70454545454546  L 1.5067264573991 18.2954545454545  C 1.5067264573991 19.0142045454545  1.69114349775785 19.6294981060606  2.05997757847534 20.1413352272727  C 2.42881165919283 20.6531723484848  2.87219730941704 20.9090909090909  3.39013452914798 20.9090909090909  L 13.1838565022422 20.9090909090909  C 13.7017937219731 20.9090909090909  14.1451793721973 20.6531723484848  14.5140134529148 20.1413352272727  C 14.8828475336323 19.6294981060606  15.067264573991 19.0142045454545  15.067264573991 18.2954545454545  L 15.067264573991 16.2372159090909  C 15.067264573991 16.0956439393939  15.1025784753363 15.9758522727273  15.1732062780269 15.8778409090909  L 15.9265695067265 14.8323863636364  C 16.0442825112108 14.6690340909091  16.1816143497758 14.6309185606061  16.3385650224215 14.7180397727273  Z M 7.53363228699552 14.1136363636364  L 15.4439461883408 3.13636363636364  L 18.8340807174888 7.84090909090909  L 10.9237668161435 18.8181818181818  L 7.53363228699552 18.8181818181818  L 7.53363228699552 14.1136363636364  Z M 21 4.18181818181818  C 21 4.61742424242424  20.890134529148 4.98768939393939  20.6704035874439 5.29261363636364  L 19.5874439461883 6.79545454545455  L 16.1973094170404 2.09090909090909  L 17.280269058296 0.588068181818181  C 17.5 0.283143939393937  17.7668161434978 0.130681818181819  18.0807174887892 0.130681818181819  C 18.3946188340807 0.130681818181819  18.6614349775785 0.283143939393937  18.8811659192825 0.588068181818181  L 20.6704035874439 3.07102272727273  C 20.890134529148 3.37594696969697  21 3.74621212121212  21 4.18181818181818  Z " fill-rule="nonzero" fill="#70b603" stroke="none" transform="matrix(1 0 0 1 1659 626 )" />
  </g>
</svg>